<?xml version="1.0" encoding="UTF-8"?>
<svg id="Layer_1" data-name="Layer 1" xmlns="http://www.w3.org/2000/svg" viewBox="0 0 163.72 36.54">
  <defs>
    <style>
      .cls-1 {
        fill: #fff;
      }

      .cls-2 {
        fill: #232222;
      }
    </style>
  </defs>
  <path class="cls-2" d="M159.04,2.22v21.68l-9.61-20.86v10.93l9.24,20.05h5.05V2.22h-4.68ZM148.64,2.22h-4.68v31.79h4.71V14.42h-.04V2.22ZM138.35,2.22h-4.68v31.79h4.68V2.22ZM123.98,2.22l-5.39,21.04,2.36,9.12,7.86-30.16h-4.83ZM112.39,2.22h-4.83l8.27,31.79h4.71v-.05l-8.16-31.75ZM97.51,28.1c-.39.35-.83.61-1.33.79-.3.15-.64.25-1.01.29-.37.05-.79.07-1.23.07-1.37,0-2.63-.28-3.78-.84-1.15-.56-2.23-1.38-3.25-2.47l-2.96,3.9c1.3,1.57,2.84,2.74,4.62,3.51,1.78.77,3.59,1.16,5.41,1.16,1.25,0,2.43-.19,3.55-.57,1.12-.38,2.11-.96,2.96-1.75.85-.79,1.52-1.79,2.02-3.02.5-1.22.75-2.7.75-4.42,0-3.96-1.53-6.71-4.6-8.25-.87-.42-1.75-.79-2.64-1.09-.89-.3-1.79-.6-2.71-.91-.45-.12-.94-.28-1.46-.48-.52-.2-1.02-.45-1.5-.77-.47-.32-.87-.71-1.18-1.18-.31-.47-.47-1.04-.47-1.7,0-.73.14-1.31.43-1.75.29-.44.65-.79,1.08-1.04.44-.26.92-.43,1.44-.52.52-.09,1.02-.14,1.5-.14,1.35,0,2.58.27,3.7.82s2.21,1.33,3.25,2.36l2.73-4.13c-1.37-1.45-2.89-2.52-4.55-3.22-1.66-.7-3.39-1.04-5.18-1.04-1.17,0-2.31.17-3.4.5-1.1.33-2.06.87-2.9,1.61-.84.74-1.51,1.69-2.02,2.83-.51,1.15-.77,2.54-.77,4.17,0,1.39.19,2.56.58,3.49.39.94.91,1.72,1.57,2.36.66.63,1.43,1.16,2.32,1.56.89.41,1.81.79,2.79,1.16.47.15.94.3,1.38.45.45.15.89.3,1.31.45.52.15,1.05.35,1.59.59.54.24,1.03.55,1.48.93.45.38.82.84,1.1,1.38.29.54.43,1.19.43,1.95,0,.45-.06.95-.19,1.5-.2.61-.49,1.08-.88,1.43ZM22.37,2.22v17.64h15.49v-5.22h-10.81v-7.21h13.13V2.22h-17.81ZM27.05,20.82h-4.68v13.2l17.81.05v-5.26h-13.13v-7.98ZM4.68,2.22H0v31.79h4.68V2.22ZM17.32,28.75H5.42v5.26h11.9v-5.26Z"/>
  <path class="cls-2" d="M72.32,36.54h-24.11c-3.78,0-6.84-3.06-6.84-6.84V6.84c0-3.78,3.06-6.84,6.84-6.84h24.11c3.78,0,6.84,3.06,6.84,6.84v22.85c0,3.78-3.06,6.84-6.84,6.84"/>
  <path class="cls-1" d="M56.38,3.86h-9.21l19.13,14.17-19.13,14.17h9.21l19.13-14.17L56.38,3.86Z"/>
</svg>