<?xml version="1.0" encoding="UTF-8"?>
<svg id="Layer_1" data-name="Layer 1" xmlns="http://www.w3.org/2000/svg" viewBox="0 0 277.84 58">
  <defs>
    <style>
      .cls-1 {
        fill: #cb956d;
      }

      .cls-2 {
        fill: #232222;
      }
    </style>
  </defs>
  <path class="cls-2" d="M269.9,3.56v34.42l-16.32-33.12v17.35l15.68,31.82h8.57V3.56h-7.94ZM252.25,3.56h-7.94v50.47h8v-31.1h-.06V3.56ZM234.79,3.56h-7.94v50.47h7.94V3.56ZM210.41,3.56l-9.14,33.41,4,14.47,13.33-47.88h-8.19ZM190.73,3.56h-8.19l14.03,50.47h8v-.07l-13.84-50.4ZM165.49,44.63c-.66.55-1.41.97-2.25,1.26-.51.24-1.08.4-1.71.47-.63.07-1.33.11-2.1.11-2.33,0-4.47-.44-6.41-1.33-1.95-.89-3.79-2.2-5.52-3.92l-5.02,6.19c2.2,2.5,4.81,4.36,7.84,5.58,3.03,1.22,6.08,1.84,9.17,1.84,2.12,0,4.13-.3,6.03-.9,1.9-.6,3.58-1.52,5.02-2.77,1.44-1.25,2.58-2.84,3.43-4.79.85-1.94,1.27-4.28,1.27-7.02,0-6.29-2.6-10.66-7.81-13.1-1.48-.67-2.97-1.25-4.48-1.73-1.5-.48-3.04-.96-4.6-1.44-.76-.19-1.59-.44-2.48-.76-.89-.31-1.74-.72-2.54-1.22-.8-.5-1.47-1.13-2-1.87-.53-.74-.79-1.64-.79-2.7,0-1.15.24-2.08.73-2.77.49-.7,1.1-1.25,1.84-1.66.74-.41,1.56-.68,2.44-.83.89-.14,1.74-.22,2.54-.22,2.29,0,4.38.43,6.29,1.3s3.75,2.11,5.52,3.74l4.63-6.55c-2.33-2.3-4.9-4.01-7.71-5.11-2.82-1.1-5.75-1.66-8.79-1.66-1.99,0-3.92.26-5.78.79-1.86.53-3.5,1.38-4.92,2.56-1.42,1.18-2.56,2.68-3.43,4.5-.87,1.82-1.3,4.03-1.3,6.62,0,2.21.33,4.06.98,5.54.66,1.49,1.54,2.74,2.67,3.74,1.12,1.01,2.43,1.84,3.94,2.48,1.5.65,3.08,1.26,4.73,1.84.8.24,1.59.48,2.35.72.76.24,1.5.48,2.22.72.89.24,1.79.55,2.7.94.91.38,1.75.88,2.51,1.48.76.6,1.39,1.33,1.87,2.2.49.86.73,1.9.73,3.1,0,.72-.11,1.51-.32,2.38-.34.96-.84,1.72-1.49,2.27ZM37.97,3.56v28.01h26.29v-8.28h-18.35v-11.45h22.29V3.56h-30.22ZM45.9,33.08h-7.94v20.95l30.22.07v-8.35h-22.29v-12.67ZM7.94,3.56H0v50.47h7.94V3.56ZM29.4,45.68H9.21v8.35h20.19v-8.35Z"/>
  <path class="cls-2" d="M128.36,58h-46.32c-3.78,0-6.84-3.06-6.84-6.84V6.84c0-3.78,3.06-6.84,6.84-6.84h46.32c3.78,0,6.84,3.06,6.84,6.84v44.32c0,3.78-3.06,6.84-6.84,6.84"/>
  <path class="cls-1" d="M98.68,6.51h-14.62s30.35,22.52,30.35,22.52l-30.4,22.47h14.62s30.4-22.46,30.4-22.46l-30.35-22.53Z"/>
</svg>