<?xml version="1.0" encoding="UTF-8"?>
<svg id="Layer_1" data-name="Layer 1" xmlns="http://www.w3.org/2000/svg" viewBox="0 0 173.69 35.13">
  <defs>
    <style>
      .cls-1 {
        fill: #fff;
      }

      .cls-2 {
        fill: #cb956d;
      }
    </style>
  </defs>
  <path class="cls-1" d="M77.53,35.13h-22.66c-3.78,0-6.84-3.06-6.84-6.84V6.84c0-3.78,3.06-6.84,6.84-6.84h22.66c3.78,0,6.84,3.06,6.84,6.84v21.45c0,3.78-3.06,6.84-6.84,6.84"/>
  <path class="cls-1" d="M168.72,1.36v20.85l-10.2-20.06v10.51l9.8,19.28h5.36V1.36h-4.96ZM157.69,1.36h-4.96v30.57h5V13.09h-.04V1.36ZM146.78,1.36h-4.96v30.57h4.96V1.36ZM131.53,1.36l-5.72,20.24,2.5,8.77,8.34-29h-5.12ZM119.23,1.36h-5.12l8.77,30.57h5v-.04L119.23,1.36ZM103.45,26.24c-.41.33-.88.59-1.41.76-.32.15-.67.24-1.07.28-.4.04-.83.07-1.31.07-1.46,0-2.79-.27-4.01-.81-1.22-.54-2.37-1.33-3.45-2.38l-3.14,3.75c1.38,1.51,3.01,2.64,4.9,3.38,1.89.74,3.8,1.11,5.74,1.11,1.32,0,2.58-.18,3.77-.55,1.19-.36,2.24-.92,3.14-1.68.9-.76,1.61-1.72,2.14-2.9.53-1.18.79-2.59.79-4.25,0-3.81-1.63-6.45-4.88-7.94-.93-.41-1.86-.76-2.8-1.05-.94-.29-1.9-.58-2.88-.87-.48-.12-.99-.27-1.55-.46-.56-.19-1.09-.44-1.59-.74-.5-.31-.92-.68-1.25-1.13-.33-.45-.5-1-.5-1.64,0-.7.15-1.26.46-1.68.3-.42.69-.76,1.15-1,.46-.25.97-.41,1.53-.5s1.08-.13,1.59-.13c1.43,0,2.74.26,3.93.78s2.34,1.28,3.45,2.27l2.9-3.97c-1.46-1.4-3.06-2.43-4.82-3.1-1.76-.67-3.59-1-5.5-1-1.24,0-2.45.16-3.61.48-1.16.32-2.19.84-3.08,1.55-.89.71-1.6,1.62-2.14,2.73-.54,1.11-.81,2.44-.81,4.01,0,1.34.2,2.46.62,3.36.41.9.97,1.66,1.67,2.27.7.61,1.52,1.11,2.46,1.5.94.39,1.92.76,2.96,1.11.5.15.99.29,1.47.44.48.15.94.29,1.39.44.56.15,1.12.33,1.69.57.57.23,1.09.53,1.57.89.48.36.87.81,1.17,1.33.3.52.46,1.15.46,1.88,0,.44-.07.92-.2,1.44-.21.58-.52,1.04-.93,1.37ZM23.73,1.36v16.96h16.43v-5.02h-11.47v-6.93h13.93V1.36h-18.89ZM28.7,19.24h-4.96v12.69l18.89.04v-5.06h-13.93v-7.68ZM4.96,1.36H0v30.57h4.96V1.36ZM18.38,26.87H5.76v5.06h12.62v-5.06Z"/>
  <path class="cls-2" d="M61.98,4.75h-7.96l16.54,12.92-16.54,12.92h7.96l16.54-12.92-16.54-12.92Z"/>
</svg>